<mxfile host="app.diagrams.net" modified="2024-02-08T22:29:16.375Z" agent="Mozilla/5.0 (Windows NT 10.0; Win64; x64) AppleWebKit/537.36 (KHTML, like Gecko) Chrome/121.0.0.0 Safari/537.36" etag="u-jZ91MM8GUHI3GCupUr" version="23.1.2" type="github">
  <diagram name="Sayfa -1" id="yDJDrQqnCfe8vFCF08S2">
    <mxGraphModel dx="1050" dy="565" grid="1" gridSize="10" guides="1" tooltips="1" connect="1" arrows="1" fold="1" page="1" pageScale="1" pageWidth="827" pageHeight="1169" math="0" shadow="0">
      <root>
        <mxCell id="0" />
        <mxCell id="1" parent="0" />
        <mxCell id="XiR3t_4C2oLz2y8_LeB7-1" value="&lt;font style=&quot;&quot;&gt;&lt;span style=&quot;font-size: 14px;&quot;&gt;Business Layer&lt;/span&gt;&lt;br&gt;&lt;font style=&quot;font-size: 12px;&quot;&gt;Repository Services&lt;br&gt;&lt;/font&gt;Fluent Validation&lt;br&gt;&lt;/font&gt;" style="ellipse;whiteSpace=wrap;html=1;align=center;newEdgeStyle={&quot;edgeStyle&quot;:&quot;entityRelationEdgeStyle&quot;,&quot;startArrow&quot;:&quot;none&quot;,&quot;endArrow&quot;:&quot;none&quot;,&quot;segment&quot;:10,&quot;curved&quot;:1,&quot;sourcePerimeterSpacing&quot;:0,&quot;targetPerimeterSpacing&quot;:0};treeFolding=1;treeMoving=1;" vertex="1" parent="1">
          <mxGeometry x="347" y="90" width="200" height="100" as="geometry" />
        </mxCell>
        <mxCell id="XiR3t_4C2oLz2y8_LeB7-2" value="&lt;font style=&quot;&quot;&gt;&lt;span style=&quot;font-size: 14px;&quot;&gt;DataAccess Layer&lt;/span&gt;&lt;br&gt;&lt;font style=&quot;font-size: 12px;&quot;&gt;Generic Repository Pattern&lt;br&gt;&lt;/font&gt;EntityFramework&lt;br&gt;&lt;/font&gt;" style="ellipse;whiteSpace=wrap;html=1;align=center;newEdgeStyle={&quot;edgeStyle&quot;:&quot;entityRelationEdgeStyle&quot;,&quot;startArrow&quot;:&quot;none&quot;,&quot;endArrow&quot;:&quot;none&quot;,&quot;segment&quot;:10,&quot;curved&quot;:1,&quot;sourcePerimeterSpacing&quot;:0,&quot;targetPerimeterSpacing&quot;:0};treeFolding=1;treeMoving=1;" vertex="1" parent="1">
          <mxGeometry x="347" y="240" width="200" height="100" as="geometry" />
        </mxCell>
        <mxCell id="XiR3t_4C2oLz2y8_LeB7-3" value="" style="endArrow=classic;html=1;rounded=0;exitX=0.5;exitY=1;exitDx=0;exitDy=0;entryX=0.5;entryY=0;entryDx=0;entryDy=0;" edge="1" parent="1" source="XiR3t_4C2oLz2y8_LeB7-1" target="XiR3t_4C2oLz2y8_LeB7-2">
          <mxGeometry width="50" height="50" relative="1" as="geometry">
            <mxPoint x="647" y="170" as="sourcePoint" />
            <mxPoint x="647" y="230" as="targetPoint" />
          </mxGeometry>
        </mxCell>
        <mxCell id="XiR3t_4C2oLz2y8_LeB7-4" value="&lt;font style=&quot;&quot;&gt;&lt;span style=&quot;font-size: 14px;&quot;&gt;Entity Layer&lt;/span&gt;&lt;br&gt;Entities&lt;br&gt;&lt;/font&gt;" style="ellipse;whiteSpace=wrap;html=1;align=center;newEdgeStyle={&quot;edgeStyle&quot;:&quot;entityRelationEdgeStyle&quot;,&quot;startArrow&quot;:&quot;none&quot;,&quot;endArrow&quot;:&quot;none&quot;,&quot;segment&quot;:10,&quot;curved&quot;:1,&quot;sourcePerimeterSpacing&quot;:0,&quot;targetPerimeterSpacing&quot;:0};treeFolding=1;treeMoving=1;" vertex="1" parent="1">
          <mxGeometry x="347" y="383" width="200" height="100" as="geometry" />
        </mxCell>
        <mxCell id="XiR3t_4C2oLz2y8_LeB7-5" value="" style="endArrow=classic;html=1;rounded=0;exitX=0.5;exitY=1;exitDx=0;exitDy=0;entryX=0.5;entryY=0;entryDx=0;entryDy=0;" edge="1" parent="1" source="XiR3t_4C2oLz2y8_LeB7-2" target="XiR3t_4C2oLz2y8_LeB7-4">
          <mxGeometry width="50" height="50" relative="1" as="geometry">
            <mxPoint x="617" y="340" as="sourcePoint" />
            <mxPoint x="667" y="290" as="targetPoint" />
          </mxGeometry>
        </mxCell>
        <mxCell id="XiR3t_4C2oLz2y8_LeB7-6" value="&lt;font style=&quot;&quot;&gt;&lt;span style=&quot;font-size: 14px;&quot;&gt;Windows Forms UI&lt;/span&gt;&lt;br&gt;Forms&lt;br&gt;Events&lt;br&gt;&lt;/font&gt;" style="ellipse;whiteSpace=wrap;html=1;align=center;newEdgeStyle={&quot;edgeStyle&quot;:&quot;entityRelationEdgeStyle&quot;,&quot;startArrow&quot;:&quot;none&quot;,&quot;endArrow&quot;:&quot;none&quot;,&quot;segment&quot;:10,&quot;curved&quot;:1,&quot;sourcePerimeterSpacing&quot;:0,&quot;targetPerimeterSpacing&quot;:0};treeFolding=1;treeMoving=1;" vertex="1" parent="1">
          <mxGeometry x="90" y="90" width="200" height="100" as="geometry" />
        </mxCell>
        <mxCell id="XiR3t_4C2oLz2y8_LeB7-7" value="" style="endArrow=classic;html=1;rounded=0;exitX=1;exitY=0.5;exitDx=0;exitDy=0;entryX=0;entryY=0.5;entryDx=0;entryDy=0;" edge="1" parent="1" source="XiR3t_4C2oLz2y8_LeB7-6" target="XiR3t_4C2oLz2y8_LeB7-1">
          <mxGeometry width="50" height="50" relative="1" as="geometry">
            <mxPoint x="217" y="250" as="sourcePoint" />
            <mxPoint x="267" y="200" as="targetPoint" />
          </mxGeometry>
        </mxCell>
      </root>
    </mxGraphModel>
  </diagram>
</mxfile>
